<?xml version="1.0" standalone="no"?>
<!DOCTYPE svg PUBLIC "-//W3C//DTD SVG 20010904//EN"
 "http://www.w3.org/TR/2001/REC-SVG-20010904/DTD/svg10.dtd">
<svg version="1.0" xmlns="http://www.w3.org/2000/svg"
 width="635.000000pt" height="514.000000pt" viewBox="0 0 635.000000 514.000000"
 preserveAspectRatio="xMidYMid meet">

<g transform="translate(0.000000,514.000000) scale(0.100000,-0.100000)"
fill="#000000" stroke="none">
<path d="M1681 5103 c-65 -254 -98 -350 -181 -533 -71 -156 -216 -409 -234
-410 -5 0 -91 81 -192 180 -101 99 -190 180 -199 180 -41 0 -124 -71 -140
-120 -9 -29 1 -42 189 -234 91 -93 166 -173 166 -178 0 -28 -369 -227 -563
-303 -135 -53 -334 -109 -449 -127 l-80 -13 5 -31 c8 -45 138 -330 208 -454
150 -265 293 -394 608 -550 138 -69 351 -163 356 -158 2 2 10 55 19 118 47
321 146 584 324 856 44 67 84 124 91 128 6 4 66 -47 140 -119 l129 -126 98 57
c55 31 101 59 104 61 2 2 -63 71 -145 153 -125 125 -147 151 -136 164 21 25
220 151 331 209 191 100 417 171 652 204 112 16 118 18 112 37 -16 52 -160
361 -210 451 -142 254 -299 400 -577 541 l-109 54 -153 0 -154 0 -10 -37z"/>
<path d="M4203 5086 c-300 -152 -470 -322 -623 -627 -48 -95 -170 -367 -170
-379 0 -4 42 -13 93 -19 225 -29 442 -93 642 -191 117 -57 355 -205 370 -230
5 -8 -41 -61 -134 -154 -77 -78 -141 -144 -141 -148 0 -4 45 -32 100 -64 l101
-57 124 122 c69 68 129 120 134 117 5 -3 36 -45 68 -93 204 -299 310 -583 358
-965 4 -27 8 -48 10 -48 2 0 53 21 112 46 168 72 370 174 468 238 113 74 246
206 318 316 95 147 298 574 280 590 -4 4 -44 12 -87 19 -115 19 -309 74 -443
126 -196 77 -563 275 -563 304 0 5 75 85 166 178 188 191 198 204 189 233 -16
49 -99 120 -140 120 -9 0 -98 -81 -199 -180 -101 -99 -187 -180 -192 -180 -5
0 -34 42 -65 93 -173 284 -275 533 -353 860 l-6 27 -154 0 -154 0 -109 -54z"/>
<path d="M2875 3690 c-148 -88 -505 -296 -792 -462 -287 -167 -526 -310 -530
-318 -5 -8 -9 -419 -11 -912 -3 -1007 -7 -939 72 -996 23 -16 201 -123 396
-237 195 -115 459 -269 585 -343 378 -222 397 -233 470 -268 38 -19 79 -34 90
-34 45 0 99 24 246 109 172 98 478 274 524 301 17 10 73 42 125 72 52 30 130
76 173 101 43 26 80 47 82 47 3 0 53 29 112 64 59 35 152 89 205 120 58 34
109 72 125 93 l28 36 2 931 3 931 -796 460 c-438 253 -806 461 -818 462 -12 1
-136 -66 -291 -157z m700 -1102 c226 -391 425 -737 443 -770 l33 -58 -895 0
-895 0 56 98 c44 75 474 820 796 1375 21 37 42 67 45 67 4 0 192 -320 417
-712z m1 475 c4 4 13 2 21 -4 7 -6 22 -9 33 -6 11 3 18 2 15 -3 -3 -4 8 -10
23 -13 15 -3 34 -7 42 -10 8 -2 29 -7 45 -12 17 -4 68 -18 114 -31 46 -14 97
-26 112 -29 15 -3 40 -10 55 -15 21 -9 29 -7 40 7 12 17 13 17 8 -2 -4 -18 4
-22 63 -38 37 -9 78 -19 91 -22 27 -6 39 -9 126 -35 54 -15 72 -17 78 -7 5 8
8 7 8 -5 0 -9 8 -18 18 -21 16 -4 15 -5 -2 -12 -17 -7 -75 1 -151 21 -11 3
-27 7 -35 8 -8 2 -28 9 -45 15 -16 7 -38 10 -48 7 -11 -2 -16 -2 -13 2 9 8
-115 43 -131 37 -7 -2 -13 -1 -13 4 0 7 -59 23 -95 25 -5 1 -12 3 -15 6 -9 10
-131 41 -140 35 -5 -3 -12 0 -15 6 -4 5 -13 8 -21 5 -8 -3 -14 -2 -14 3 0 5
-30 16 -67 25 -79 20 -113 39 -113 64 0 14 2 15 10 2 5 -8 12 -11 16 -7z
m-776 -3 c0 -5 -6 -7 -13 -4 -8 3 -20 -2 -27 -11 -7 -8 -19 -15 -26 -15 -8 0
-14 -6 -14 -14 0 -8 -4 -18 -10 -21 -6 -4 -7 1 -3 11 5 13 3 16 -10 11 -8 -3
-32 -9 -51 -13 -20 -3 -36 -9 -36 -13 0 -4 -8 -7 -17 -7 -10 0 -51 -9 -91 -19
-55 -14 -71 -23 -67 -33 4 -12 3 -13 -10 -2 -9 7 -22 9 -32 5 -10 -5 -24 -9
-31 -11 -8 -1 -21 -6 -30 -9 -9 -4 -33 -9 -52 -11 -19 -2 -36 -8 -38 -14 -2
-5 -7 -8 -11 -5 -13 8 -253 -60 -244 -69 4 -5 2 -6 -5 -2 -7 4 -18 4 -25 -1
-18 -12 -89 -10 -94 3 -2 6 32 20 82 33 47 13 83 27 80 31 -3 4 4 6 15 3 11
-3 28 -2 37 2 10 5 29 10 43 12 13 2 27 8 30 12 3 4 19 8 35 9 41 3 133 30
140 42 3 5 12 7 20 3 8 -3 23 -2 33 2 9 5 23 9 30 11 66 13 182 49 182 55 0 5
7 6 15 3 8 -4 22 -1 30 6 8 7 15 10 15 7 0 -3 24 1 53 8 65 16 97 18 97 5z
m-253 -25 c0 -8 -4 -12 -9 -9 -5 3 -6 10 -3 15 9 13 12 11 12 -6z m263 -9 c0
-2 -7 -7 -16 -10 -8 -3 -12 -2 -9 4 6 10 25 14 25 6z m710 -276 c6 -11 8 -20
6 -20 -3 0 -10 9 -16 20 -6 11 -8 20 -6 20 3 0 10 -9 16 -20z m110 -190 c6
-11 8 -20 6 -20 -3 0 -10 9 -16 20 -6 11 -8 20 -6 20 3 0 10 -9 16 -20z m180
-310 c6 -11 8 -20 6 -20 -3 0 -10 9 -16 20 -6 11 -8 20 -6 20 3 0 10 -9 16
-20z m110 -190 c6 -11 8 -20 6 -20 -3 0 -10 9 -16 20 -6 11 -8 20 -6 20 3 0
10 -9 16 -20z m110 -190 c6 -11 8 -20 6 -20 -3 0 -10 9 -16 20 -6 11 -8 20 -6
20 3 0 10 -9 16 -20z"/>
<path d="M1702 848 c-7 -7 -12 -17 -12 -24 0 -6 -9 -14 -20 -17 -11 -3 -24
-16 -29 -30 -5 -13 -19 -27 -31 -30 -12 -3 -24 -14 -27 -25 -3 -11 -13 -22
-24 -25 -10 -3 -23 -15 -27 -27 -4 -11 -19 -27 -32 -33 -14 -7 -27 -23 -28
-37 -2 -13 -12 -35 -22 -48 -21 -26 -18 -42 19 -92 29 -40 45 -54 84 -76 26
-14 31 -14 55 3 15 10 38 20 52 23 14 3 30 17 38 33 7 15 20 27 28 27 8 0 19
11 25 24 6 13 20 27 30 29 10 3 23 17 29 31 5 14 16 26 25 26 8 0 21 11 27 25
6 13 20 27 30 31 11 3 23 17 28 30 5 13 16 24 24 24 7 0 19 6 25 14 9 11 -11
27 -109 85 -66 39 -126 71 -133 71 -7 0 -18 -5 -25 -12z"/>
<path d="M4466 775 c-124 -71 -128 -75 -103 -84 15 -6 27 -17 27 -26 0 -8 11
-20 24 -26 13 -6 29 -22 35 -35 6 -13 18 -24 26 -24 9 0 20 -12 25 -26 6 -14
19 -28 29 -31 11 -3 21 -13 24 -24 3 -10 15 -23 27 -27 11 -4 27 -19 33 -32 7
-14 24 -27 37 -30 14 -3 37 -13 52 -23 24 -17 29 -17 56 -3 16 8 48 36 71 62
43 49 53 91 27 114 -8 6 -16 23 -18 38 -2 16 -13 31 -28 39 -13 6 -28 22 -32
33 -4 12 -17 24 -27 27 -11 3 -21 14 -24 25 -3 11 -15 22 -27 25 -12 3 -26 17
-31 30 -5 14 -18 27 -28 30 -11 3 -21 13 -24 24 -3 10 -9 19 -14 19 -4 0 -66
-34 -137 -75z"/>
</g>
</svg>
